# Blender v2.93.5 OBJ File: ''
# www.blender.org
mtllib hzLogo.mtl
o Curve
v 0.612563 1.031185 0.000000
v -0.748049 -0.873061 -0.000000
v -0.380766 -0.873061 -0.000000
v 0.980207 1.031185 0.000000
v 1.712277 0.714246 0.000000
v 1.340600 0.714246 0.000000
v 0.974860 0.714246 0.000000
v 0.843985 0.533970 0.000000
v 1.209848 0.533970 0.000000
v 0.419409 -0.556119 -0.000000
v 0.790976 -0.556119 -0.000000
v 1.163723 -0.556119 -0.000000
v 1.294475 -0.375961 -0.000000
v 0.921728 -0.375961 -0.000000
v -0.364010 -0.034427 -0.000000
v -0.730218 -0.034427 -0.000000
v -0.977809 -0.375961 -0.000000
v -1.108439 -0.556119 -0.000000
v -1.480120 -0.556119 -0.000000
v -1.852872 -0.556119 -0.000000
v -1.722004 -0.375961 -0.000000
v -1.349373 -0.375961 -0.000000
v -0.558823 0.714246 0.000000
v -0.187257 0.714246 0.000000
v -0.585562 0.164982 0.000000
v -0.219354 0.164982 0.000000
v 0.612563 1.031185 -0.200000
v -0.748049 -0.873061 -0.199994
v -0.380766 -0.873061 -0.200000
v 0.980207 1.031185 -0.200000
v 1.712277 0.714246 -0.200000
v 1.340600 0.714246 -0.199994
v 0.974860 0.714246 -0.200000
v 0.843985 0.533970 -0.199994
v 1.209848 0.533970 -0.199994
v 0.419409 -0.556119 -0.200000
v 0.790976 -0.556119 -0.200000
v 1.163723 -0.556119 -0.200000
v 1.294475 -0.375961 -0.200000
v 0.921728 -0.375961 -0.200000
v -0.364010 -0.034427 -0.200000
v -0.730218 -0.034427 -0.200000
v -0.977809 -0.375961 -0.200000
v -1.108439 -0.556119 -0.200000
v -1.480120 -0.556119 -0.200000
v -1.852872 -0.556119 -0.200000
v -1.722004 -0.375961 -0.200000
v -1.349373 -0.375961 -0.200000
v -0.558823 0.714246 -0.200000
v -0.187257 0.714246 -0.199994
v -0.585562 0.164982 -0.200000
v -0.219354 0.164982 -0.200000
vt 0.040000 0.000000
vt 0.120000 0.000000
vt 0.000000 0.000000
vt 0.080000 0.000000
vt 0.840000 0.000000
vt 0.920000 0.000000
vt 0.880000 0.000000
vt 0.960000 0.000000
vt 0.280000 0.000000
vt 0.200000 0.000000
vt 0.240000 0.000000
vt 0.160000 0.000000
vt 0.320000 0.000000
vt 0.520000 0.000000
vt 0.360000 0.000000
vt 0.600000 0.000000
vt 1.000000 0.000000
vt 0.560000 0.000000
vt 0.640000 0.000000
vt 0.760000 0.000000
vt 0.800000 0.000000
vt 0.680000 0.000000
vt 0.480000 0.000000
vt 0.440000 0.000000
vt 0.720000 0.000000
vt 0.400000 0.000000
vt 0.040000 0.000000
vt 0.000000 0.000000
vt 0.120000 0.000000
vt 0.080000 0.000000
vt 0.840000 0.000000
vt 0.880000 0.000000
vt 0.920000 0.000000
vt 0.960000 0.000000
vt 0.280000 0.000000
vt 0.240000 0.000000
vt 0.200000 0.000000
vt 0.160000 0.000000
vt 0.320000 0.000000
vt 0.520000 0.000000
vt 0.360000 0.000000
vt 0.600000 0.000000
vt 1.000000 0.000000
vt 0.560000 0.000000
vt 0.640000 0.000000
vt 0.760000 0.000000
vt 0.800000 0.000000
vt 0.680000 0.000000
vt 0.480000 0.000000
vt 0.440000 0.000000
vt 0.720000 0.000000
vt 0.400000 0.000000
vn 0.0000 -0.0000 1.0000
vn 0.0000 -0.0000 -1.0000
vn -0.8136 0.5814 0.0000
vn 0.0000 1.0000 0.0000
vn 0.0000 -1.0000 0.0000
vn 0.8136 -0.5815 0.0000
vn -0.8096 0.5870 0.0000
vn 0.8095 -0.5871 0.0000
vn -0.8092 0.5875 0.0000
vn 0.8096 -0.5870 0.0000
vn 0.8094 -0.5872 -0.0000
vn 0.8096 -0.5869 0.0000
vn -0.8091 0.5877 0.0000
vn 0.8093 -0.5874 0.0000
usemtl (null)
s off
f 2/1/1 4/2/1 1/3/1
f 2/1/1 3/4/1 4/2/1
f 22/5/1 24/6/1 23/7/1
f 22/5/1 25/8/1 24/6/1
f 8/9/1 6/10/1 7/11/1
f 8/9/1 5/12/1 6/10/1
f 8/9/1 9/13/1 5/12/1
f 9/13/1 14/14/1 5/12/1
f 10/15/1 14/14/1 9/13/1
f 22/5/1 16/16/1 25/8/1
f 16/16/1 26/17/1 25/8/1
f 16/16/1 15/18/1 26/17/1
f 22/5/1 17/19/1 16/16/1
f 20/20/1 22/5/1 21/21/1
f 20/20/1 17/19/1 22/5/1
f 20/20/1 18/22/1 17/19/1
f 10/15/1 13/23/1 14/14/1
f 10/15/1 12/24/1 13/23/1
f 19/25/1 18/22/1 20/20/1
f 11/26/1 12/24/1 10/15/1
f 28/27/2 27/28/2 30/29/2
f 28/27/2 30/29/2 29/30/2
f 48/31/2 49/32/2 50/33/2
f 48/31/2 50/33/2 51/34/2
f 34/35/2 33/36/2 32/37/2
f 34/35/2 32/37/2 31/38/2
f 34/35/2 31/38/2 35/39/2
f 35/39/2 31/38/2 40/40/2
f 36/41/2 35/39/2 40/40/2
f 48/31/2 51/34/2 42/42/2
f 42/42/2 51/34/2 52/43/2
f 42/42/2 52/43/2 41/44/2
f 48/31/2 42/42/2 43/45/2
f 46/46/2 47/47/2 48/31/2
f 46/46/2 48/31/2 43/45/2
f 46/46/2 43/45/2 44/48/2
f 36/41/2 40/40/2 39/49/2
f 36/41/2 39/49/2 38/50/2
f 45/51/1 46/46/1 44/48/1
f 37/52/1 36/41/1 38/50/1
f 2/1/3 1/3/3 27/28/3 28/27/3
f 1/3/4 4/2/4 30/29/4 27/28/4
f 3/4/5 2/1/5 28/27/5 29/30/5
f 4/2/6 3/4/6 29/30/6 30/29/6
f 22/5/7 23/7/7 49/32/7 48/31/7
f 23/7/4 24/6/4 50/33/4 49/32/4
f 24/6/8 25/8/8 51/34/8 50/33/8
f 8/9/9 7/11/9 33/36/9 34/35/9
f 7/11/4 6/10/4 32/37/4 33/36/4
f 6/10/4 5/12/4 31/38/4 32/37/4
f 9/13/5 8/9/5 34/35/5 35/39/5
f 5/12/10 14/14/10 40/40/10 31/38/10
f 10/15/7 9/13/7 35/39/7 36/41/7
f 25/8/4 26/17/4 52/43/4 51/34/4
f 15/18/5 16/16/5 42/42/5 41/44/5
f 26/17/11 15/18/11 41/44/11 52/43/11
f 16/16/12 17/19/12 43/45/12 42/42/12
f 20/20/13 21/21/13 47/47/13 46/46/13
f 21/21/4 22/5/4 48/31/4 47/47/4
f 17/19/10 18/22/10 44/48/10 43/45/10
f 14/14/4 13/23/4 39/49/4 40/40/4
f 13/23/14 12/24/14 38/50/14 39/49/14
f 19/25/5 20/20/5 46/46/5 45/51/5
f 18/22/5 19/25/5 45/51/5 44/48/5
f 11/26/5 10/15/5 36/41/5 37/52/5
f 12/24/5 11/26/5 37/52/5 38/50/5
