# Blender v2.93.5 OBJ File: 'untitled.blend'
# www.blender.org
mtllib hzLogo_000237.mtl
o Curve
v 0.612563 1.031185 0.000000
v -0.748049 -0.873061 -0.000000
v -0.380766 -0.873061 -0.000000
v 0.980207 1.031185 0.000000
v 1.712277 0.714246 0.000000
v 1.340600 0.714246 0.000000
v 0.974860 0.714246 0.000000
v 0.843985 0.533970 0.000000
v 1.209848 0.533970 0.000000
v 0.419409 -0.556119 -0.000000
v 0.790976 -0.556119 -0.000000
v 1.163723 -0.556119 -0.000000
v 1.294475 -0.375961 -0.000000
v 0.921728 -0.375961 -0.000000
v -0.364010 -0.034427 -0.000000
v -0.730218 -0.034427 -0.000000
v -0.977809 -0.375961 -0.000000
v -1.108439 -0.556119 -0.000000
v -1.480120 -0.556119 -0.000000
v -1.852872 -0.556119 -0.000000
v -1.722004 -0.375961 -0.000000
v -1.349373 -0.375961 -0.000000
v -0.558823 0.714246 0.000000
v -0.187257 0.714246 0.000000
v -0.585562 0.164982 0.000000
v -0.219354 0.164982 0.000000
v 0.612563 1.031185 -0.010000
v -0.748049 -0.873061 -0.010000
v -0.380766 -0.873061 -0.010000
v 0.980207 1.031185 -0.010000
v 1.712277 0.714246 -0.010000
v 1.340600 0.714246 -0.010000
v 0.974860 0.714246 -0.010000
v 0.419409 -0.556119 -0.010000
v 0.790976 -0.556119 -0.010000
v 1.163723 -0.556119 -0.010000
v 1.294475 -0.375961 -0.010000
v -0.364010 -0.034427 -0.010000
v -0.730218 -0.034427 -0.010000
v -1.108439 -0.556119 -0.010000
v -1.480120 -0.556119 -0.010000
v -1.852872 -0.556119 -0.010000
v -0.558823 0.714246 -0.010000
v -0.187257 0.714246 -0.010000
v -0.585562 0.164982 -0.010000
v -0.219354 0.164982 -0.010000
v 0.612563 1.031185 -0.099685
v -0.748049 -0.873061 -0.099685
v -0.380766 -0.873061 -0.099685
v 0.980207 1.031185 -0.099685
v -1.349373 -0.375961 -0.099685
v -0.558823 0.714246 -0.099685
v -0.187257 0.714246 -0.099685
v -0.585562 0.164982 -0.099685
v 0.974860 0.714246 -0.099685
v 0.843985 0.533970 -0.099685
v 1.209848 0.533970 -0.099685
v 1.712277 0.714246 -0.099685
v 0.921728 -0.375961 -0.099685
v 0.419409 -0.556119 -0.099685
v -0.364010 -0.034427 -0.099685
v -0.219354 0.164982 -0.099685
v -0.730218 -0.034427 -0.099685
v -0.977809 -0.375961 -0.099685
v -1.852872 -0.556119 -0.099685
v -1.722004 -0.375961 -0.099685
v -1.108439 -0.556119 -0.099685
v 1.294475 -0.375961 -0.099685
v 0.612563 1.031185 -0.109685
v -0.748049 -0.873061 -0.109685
v 0.980207 1.031185 -0.109685
v -0.380766 -0.873061 -0.109685
v -1.349373 -0.375961 -0.109685
v -0.558823 0.714246 -0.109685
v -0.187257 0.714246 -0.109685
v -0.585562 0.164982 -0.109685
v 0.974860 0.714246 -0.109685
v 0.843985 0.533970 -0.109685
v 1.340600 0.714246 -0.109685
v 1.712277 0.714246 -0.109685
v 1.209848 0.533970 -0.109685
v 0.921728 -0.375961 -0.109685
v 0.419409 -0.556119 -0.109685
v -0.730218 -0.034427 -0.109685
v -0.219354 0.164982 -0.109685
v -0.364010 -0.034427 -0.109685
v -0.977809 -0.375961 -0.109685
v -1.852872 -0.556119 -0.109685
v -1.722004 -0.375961 -0.109685
v -1.108439 -0.556119 -0.109685
v 1.294475 -0.375961 -0.109685
v 1.163723 -0.556119 -0.109685
vt 0.040000 0.000000
vt 0.000000 0.000000
vt 0.120000 0.000000
vt 0.080000 0.000000
vt 0.840000 0.000000
vt 0.880000 0.000000
vt 0.920000 0.000000
vt 0.960000 0.000000
vt 0.280000 0.000000
vt 0.240000 0.000000
vt 0.200000 0.000000
vt 0.160000 0.000000
vt 0.320000 0.000000
vt 0.520000 0.000000
vt 0.360000 0.000000
vt 0.600000 0.000000
vt 1.000000 0.000000
vt 0.560000 0.000000
vt 0.640000 0.000000
vt 0.760000 0.000000
vt 0.800000 0.000000
vt 0.680000 0.000000
vt 0.480000 0.000000
vt 0.440000 0.000000
vt 0.720000 0.000000
vt 0.400000 0.000000
vt 0.360000 0.000000
vt 0.360000 0.000000
vt 0.360000 0.000000
vt 0.600000 0.000000
vt 0.560000 0.000000
vt 0.560000 0.000000
vt 0.600000 0.000000
vt 0.880000 0.000000
vt 0.880000 0.000000
vt 0.880000 0.000000
vt 0.440000 0.000000
vt 0.480000 0.000000
vt 0.480000 0.000000
vt 0.440000 0.000000
vt 0.040000 0.000000
vt 0.000000 0.000000
vt 1.000000 0.000000
vt 0.960000 0.000000
vt 0.960000 0.000000
vt 1.000000 0.000000
vt 1.000000 0.000000
vt 0.560000 0.000000
vt 0.240000 0.000000
vt 0.240000 0.000000
vt 0.240000 0.000000
vt 0.760000 0.000000
vt 0.760000 0.000000
vt 0.760000 0.000000
vt 0.280000 0.000000
vt 0.920000 0.000000
vt 0.920000 0.000000
vt 0.160000 0.000000
vt 0.160000 0.000000
vt 0.160000 0.000000
vt 0.520000 0.000000
vt 0.480000 0.000000
vt 0.680000 0.000000
vt 0.680000 0.000000
vt 0.680000 0.000000
vt 0.920000 0.000000
vt 0.960000 0.000000
vt 0.120000 0.000000
vt 0.120000 0.000000
vt 0.120000 0.000000
vt 0.720000 0.000000
vt 0.400000 0.000000
vt 0.080000 0.000000
vt 0.080000 0.000000
vt 0.080000 0.000000
vt 0.000000 0.000000
vt 0.040000 0.000000
vt 0.640000 0.000000
vt 0.600000 0.000000
vt 0.040000 0.000000
vt 0.200000 0.000000
vt 0.320000 0.000000
vt 0.000000 0.000000
vt 0.840000 0.000000
vt 0.800000 0.000000
vt 0.840000 0.000000
vt 0.280000 0.000000
vt 0.200000 0.000000
vt 0.320000 0.000000
vt 0.520000 0.000000
vt 0.640000 0.000000
vt 0.800000 0.000000
vn 0.0000 0.0000 -1.0000
vn 0.0000 0.0000 1.0000
vn 0.0000 -1.0000 0.0000
vn 0.0000 1.0000 0.0000
vn -0.8093 0.5874 0.0000
vn 0.8136 -0.5814 0.0000
vn -0.8094 0.5872 0.0000
vn 0.8092 -0.5875 0.0000
vn -0.8095 0.5871 0.0000
vn -0.8096 0.5870 0.0000
vn 0.8096 -0.5870 0.0000
vn -0.8136 0.5815 0.0000
vn -0.8096 0.5869 0.0000
vn 0.8091 -0.5877 0.0000
g Curve_Curve_Material.001
usemtl Material.001
s off
f 2/1/1 1/2/1 4/3/1
f 2/1/1 4/3/1 3/4/1
f 22/5/1 23/6/1 24/7/1
f 22/5/1 24/7/1 25/8/1
f 8/9/1 7/10/1 6/11/1
f 8/9/1 6/11/1 5/12/1
f 8/9/1 5/12/1 9/13/1
f 9/13/1 5/12/1 14/14/1
f 10/15/1 9/13/1 14/14/1
f 22/5/1 25/8/1 16/16/1
f 16/16/1 25/8/1 26/17/1
f 16/16/1 26/17/1 15/18/1
f 22/5/1 16/16/1 17/19/1
f 20/20/1 21/21/1 22/5/1
f 20/20/1 22/5/1 17/19/1
f 20/20/1 17/19/1 18/22/1
f 10/15/1 14/14/1 13/23/1
f 10/15/1 13/23/1 12/24/1
f 19/25/2 20/20/2 18/22/2
f 11/26/2 10/15/2 12/24/2
f 10/15/3 34/27/3 83/28/3 60/29/3
f 39/30/4 38/31/4 86/32/4 84/33/4
f 43/34/4 23/6/4 52/35/4 74/36/4
f 36/37/5 37/38/5 91/39/5 92/40/5
f 1/2/6 2/1/6 48/41/6 47/42/6
f 46/43/3 45/44/3 76/45/3 85/46/3
f 34/27/4 36/37/4 92/40/4 83/28/4
f 15/18/7 26/17/7 62/47/7 61/48/7
f 33/49/3 7/10/3 55/50/3 77/51/3
f 20/20/2 42/52/2 88/53/2 65/54/2
f 7/10/8 8/9/8 56/55/8 55/50/8
f 44/56/3 43/34/3 74/36/3 75/57/3
f 5/12/4 31/58/4 80/59/4 58/60/4
f 13/23/3 14/14/3 59/61/3 68/62/3
f 40/63/3 18/22/3 67/64/3 90/65/3
f 42/52/4 40/63/4 90/65/4 88/53/4
f 25/8/9 24/7/9 53/66/9 54/67/9
f 4/3/4 30/68/4 71/69/4 50/70/4
f 41/71/2 40/63/2 42/52/2
f 35/72/2 36/37/2 34/27/2
f 29/73/2 3/4/2 49/74/2 72/75/2
f 1/2/3 27/76/3 30/68/3 4/3/3
f 3/4/4 29/73/4 28/77/4 2/1/4
f 18/22/10 17/19/10 64/78/10 67/64/10
f 16/16/4 39/30/4 84/33/4 63/79/4
f 23/6/3 43/34/3 44/56/3 24/7/3
f 2/1/3 28/77/3 70/80/3 48/41/3
f 38/31/4 15/18/4 61/48/4 86/32/4
f 7/10/3 33/49/3 32/81/3 6/11/3
f 6/11/3 32/81/3 31/58/3 5/12/3
f 28/77/4 29/73/4 72/75/4 70/80/4
f 9/13/11 10/15/11 60/29/11 57/82/11
f 27/76/3 1/2/3 47/42/3 69/83/3
f 25/8/3 45/44/3 46/43/3 26/17/3
f 15/18/4 38/31/4 39/30/4 16/16/4
f 23/6/11 22/5/11 51/84/11 52/35/11
f 30/68/3 27/76/3 69/83/3 71/69/3
f 14/14/10 5/12/10 58/60/10 59/61/10
f 22/5/3 21/21/3 66/85/3 51/84/3
f 37/38/4 13/23/4 68/62/4 91/39/4
f 3/4/12 4/3/12 50/70/12 49/74/12
f 13/23/5 37/38/5 36/37/5 12/24/5
f 19/25/4 41/71/4 42/52/4 20/20/4
f 18/22/4 40/63/4 41/71/4 19/25/4
f 11/26/4 35/72/4 34/27/4 10/15/4
f 12/24/4 36/37/4 35/72/4 11/26/4
f 70/80/2 71/69/2 69/83/2
f 70/80/2 72/75/2 71/69/2
f 73/86/2 75/57/2 74/36/2
f 73/86/2 76/45/2 75/57/2
f 78/87/2 79/88/2 77/51/2
f 78/87/2 80/59/2 79/88/2
f 78/87/2 81/89/2 80/59/2
f 81/89/2 82/90/2 80/59/2
f 83/28/2 82/90/2 81/89/2
f 73/86/2 84/33/2 76/45/2
f 84/33/2 85/46/2 76/45/2
f 84/33/2 86/32/2 85/46/2
f 73/86/2 87/91/2 84/33/2
f 88/53/2 73/86/2 89/92/2
f 88/53/2 87/91/2 73/86/2
f 88/53/2 90/65/2 87/91/2
f 83/28/2 91/39/2 82/90/2
f 83/28/2 92/40/2 91/39/2
f 48/41/6 70/80/6 69/83/6 47/42/6
f 50/70/12 71/69/12 72/75/12 49/74/12
f 51/84/11 73/86/11 74/36/11 52/35/11
f 53/66/9 75/57/9 76/45/9 54/67/9
f 56/55/8 78/87/8 77/51/8 55/50/8
f 57/82/4 81/89/4 78/87/4 56/55/4
f 58/60/10 80/59/10 82/90/10 59/61/10
f 60/29/11 83/28/11 81/89/11 57/82/11
f 62/47/7 85/46/7 86/32/7 61/48/7
f 63/79/13 84/33/13 87/91/13 64/78/13
f 65/54/14 88/53/14 89/92/14 66/85/14
f 66/85/3 89/92/3 73/86/3 51/84/3
f 64/78/10 87/91/10 90/65/10 67/64/10
f 59/61/3 82/90/3 91/39/3 68/62/3
f 17/19/13 16/16/13 63/79/13 64/78/13
f 32/81/3 33/49/3 77/51/3 79/88/3
f 8/9/4 9/13/4 57/82/4 56/55/4
f 24/7/3 44/56/3 75/57/3 53/66/3
f 21/21/14 20/20/14 65/54/14 66/85/14
f 45/44/3 25/8/3 54/67/3 76/45/3
f 31/58/3 32/81/3 79/88/3 80/59/3
f 26/17/4 46/43/4 85/46/4 62/47/4
